<svg width="245" height="50" viewBox="0 0 245 50" fill="none" xmlns="http://www.w3.org/2000/svg">
<path d="M31.6762 17.2016H15.9736V13.1114H31.6762C31.1566 12.157 30.1624 11.2935 28.355 11.2935H15.1603C14.5276 11.2935 14.1661 11.6344 14.1661 12.2025V12.6569H7.02654V12.2025C7.02654 9.24842 9.80556 6.97608 14.0306 6.97608H31.4277C35.7883 6.97608 39.3355 10.7709 39.3355 15.1565C39.3355 19.5421 35.7883 23.3369 31.4277 23.3369H14.0306C9.80556 23.3369 7.02654 21.0646 7.02654 18.1105V17.6561H14.1661V18.1105C14.1661 18.6786 14.5276 19.0195 15.1603 19.0195H28.355C30.1624 19.0195 31.1566 18.156 31.6762 17.2016Z" fill="white"/>
<path d="M70.746 7.20332V23.1097H63.6064V14.0203L47.836 23.1097H40.6964V7.20332H47.836V16.2927L63.6064 7.20332H70.746ZM55.7212 2.04511C58.7035 2.04511 60.8273 1.20434 62.7026 0L65.1879 3.68119C63.4934 4.81736 60.624 6.52162 55.7212 6.52162C50.8183 6.52162 47.949 4.81736 46.2544 3.68119L48.7397 0C50.615 1.20434 52.7388 2.04511 55.7212 2.04511Z" fill="white"/>
<path d="M94.4728 12.6569H79.6966V14.4748H94.4728C95.1055 14.4748 95.467 14.134 95.467 13.5659C95.467 12.9978 95.1055 12.6569 94.4728 12.6569ZM79.6966 23.1097H72.557V7.20332H96.2803C100.234 7.20332 102.607 10.3846 102.607 13.5659C102.607 16.7471 100.234 19.9284 96.2803 19.9284H79.6966V23.1097Z" fill="white"/>
<path d="M115.714 23.1097V7.20332H122.854V15.9291L135.416 7.20332H145.764L134.309 15.1565L145.764 23.1097H135.416L129.135 18.7468L122.854 23.1097H115.714Z" fill="white"/>
<path d="M147.134 23.1097V7.20332H174.246V12.6569H154.273V23.1097H147.134Z" fill="white"/>
<path d="M206.109 7.20332V23.1097H198.97V14.0203L183.199 23.1097H176.06V7.20332H183.199V16.2927L198.97 7.20332H206.109Z" fill="white"/>
<path d="M207.92 23.1097V7.20332H215.06V15.9291L227.622 7.20332H237.97L226.515 15.1565L237.97 23.1097H227.622L221.341 18.7468L215.06 23.1097H207.92Z" fill="white"/>
<path d="M91.8815 29.2933C92.034 29.4211 92.1357 29.6001 92.1357 29.7535C92.1357 30.0858 91.7544 30.4181 91.119 30.4181C90.9665 30.4181 90.8139 30.3925 90.6614 30.367C89.7464 30.6482 88.8568 31.0316 88.0434 31.5174C87.5096 31.8497 87.6113 32.4632 87.5605 32.8722C87.4842 33.4602 87.2046 33.7925 87.2046 34.3549C87.2046 34.764 86.7725 34.8918 86.7725 35.3519C86.7725 35.4286 86.7979 35.5053 86.7979 35.582C86.7979 36.0422 86.5946 36.3234 86.2896 36.7579C86.1371 37.2437 84.7137 39.3143 83.9003 39.3143C83.6969 39.3143 83.2648 39.7233 82.8582 39.9279C82.0956 39.7489 81.4093 39.57 80.8756 39.0587C80.0368 38.1128 79.4013 36.4512 79.4013 35.3775C79.4013 34.764 79.6047 34.2016 79.6047 33.6647C79.6047 33.2301 80.1639 32.2587 80.1639 31.6963C80.1639 31.2106 79.4267 30.1113 79.4267 29.3189C79.4267 26.6858 80.5197 26.4557 82.1465 26.4557C82.5023 26.4557 82.909 26.4557 83.3157 26.4557C83.9003 26.4557 86.7217 27.4783 87.1792 29.5745C87.2554 29.9068 87.408 30.3925 87.7892 30.3925C87.8401 30.3925 87.8909 30.3925 87.9417 30.367C89.2635 29.9068 90.4581 29.37 91.8815 29.2933ZM86.2387 33.0512C86.1879 32.77 86.2133 32.4121 85.9591 32.4121C85.8829 32.4121 85.7558 32.4377 85.6541 32.4632C84.8153 32.77 83.9765 33.1534 83.0361 33.1534C82.2481 33.1534 82.2481 35.9399 82.2481 36.2978C82.2481 36.9624 82.6294 37.8061 83.1886 37.8061C84.4849 37.8061 85.6287 34.6617 85.9591 34.4061C86.1625 34.0737 86.1879 33.4346 86.2387 33.0512ZM80.8756 29.2422C80.901 29.4467 80.9264 30.0602 81.1806 30.0602C81.4856 30.0602 81.5364 29.5234 81.8923 29.5234C81.8669 29.5234 83.9511 29.958 83.9511 30.6737C83.9511 30.8783 83.6715 31.3128 83.5699 31.5429C83.5699 31.773 83.7986 31.8241 83.8495 31.8241C84.5103 31.8241 86.0354 31.4662 86.0354 30.8016C86.0354 29.4211 84.129 27.3249 82.604 27.3249C81.511 27.3249 80.8756 28.3219 80.8756 29.2422Z" fill="white"/>
<path d="M107.829 35.6076C107.778 35.7609 107.295 37.0647 107.244 37.1925C106.99 38.0617 106.405 38.0617 106.405 39.1098C106.405 39.8 106.024 40.5414 105.922 41.2316C105.668 41.7429 105.16 42.8166 103.889 42.8166C103.177 42.8166 102.44 42.0752 102.44 41.4872C102.44 41.4361 102.466 41.3339 102.516 41.1549C102.262 40.6692 101.957 40.2346 101.957 39.8C101.957 39.391 102.186 39.0587 102.186 37.2692C102.186 36.7579 102.593 36.3234 102.593 35.9143C102.593 35.6587 102.466 35.4031 102.466 35.173C102.593 35.0452 102.745 34.9429 102.872 34.8151C102.771 34.6106 102.694 34.4061 102.694 34.2016C102.694 33.0767 103.406 31.8497 103.406 31.3895C103.406 31.2106 103.355 31.0828 103.355 30.9038C103.355 30.6226 103.432 30.367 103.432 30.0858C103.432 29.958 103.381 29.8301 103.381 29.7023C103.381 29.6001 103.406 29.4978 103.406 29.3956C103.406 29.2422 103.304 29.0632 103.304 28.9098C103.304 28.7565 103.355 28.6031 103.432 28.4753C103.355 28.4753 103.279 28.4497 103.203 28.4497C103.025 28.4497 102.822 28.6031 102.644 28.7053C102.542 29.2677 102.237 29.3189 101.881 29.5489C101.779 30.0091 101.678 30.4437 101.398 30.8016C100.915 31.3895 100.61 32.5143 99.873 33.4346C99.6443 33.7158 99.6189 34.3549 99.4155 34.764C98.6276 36.3489 98.7292 37.4482 97.7379 37.4482C97.7379 37.4482 95.7045 37.3715 95.7045 34.4572C95.7045 34.3805 95.7045 34.2271 95.7045 34.0482C95.7045 33.7158 95.6791 33.3579 95.5012 33.3579C95.3995 33.3579 95.2978 33.3835 95.2216 33.4091C94.8149 34.3294 94.3065 35.3519 93.544 36.4767C93.061 37.1925 92.8577 37.9083 91.8918 37.9083C91.1801 37.9083 90.3668 36.6812 90.3668 35.3775C90.3668 35.173 90.4176 34.9685 90.4176 34.7384C90.4176 34.4061 90.3668 34.0993 90.3668 33.767C90.3668 33.3324 90.443 32.8978 90.4938 32.4888C90.4938 32.182 90.9259 31.5429 90.9259 30.8783C90.9259 30.7249 90.8243 30.5715 90.8243 30.4181C90.8751 30.0602 90.9514 29.7279 91.053 29.3956C91.2564 28.7309 91.1547 27.5038 91.7647 27.5038C92.1968 27.5038 93.5694 27.9895 93.5694 28.6286C93.5694 28.6798 93.544 28.7309 93.5186 28.782C93.239 29.3444 93.1627 29.9068 93.1627 30.5204C93.1627 31.3895 92.5781 32.2587 92.5781 33.2557C92.5781 33.6392 92.7052 34.0482 92.7052 34.4316C92.7052 34.5595 92.6035 34.7128 92.6035 34.8407C92.6035 34.9685 92.6798 35.0707 92.8069 35.0707C92.9848 35.0196 93.0865 34.8918 93.1627 34.764C94.1286 33.2557 95.3995 31.2617 96.8991 31.2617C97.255 31.2617 97.6108 31.5685 97.6108 31.9264C97.6108 32.7189 97.5346 33.4091 97.5346 34.1504C97.5346 34.176 97.56 34.2016 97.5854 34.2271C97.865 34.2271 98.4242 33.3068 98.5259 32.8978C98.5767 32.6166 99.0088 32.3865 99.2122 32.0031C99.6189 31.2362 99.4409 31.5174 100.864 29.4722C101.22 28.961 101.525 29.1399 101.678 28.5775C101.779 28.1941 102.186 28.0407 102.364 27.7083C102.491 27.4527 103.33 26.0211 104.855 26.0211C105.236 26.0211 105.821 26.3279 105.821 26.7625C105.821 26.8136 105.795 26.8903 105.795 26.9414C105.795 27.1715 105.922 27.376 105.922 27.6061C105.922 28.3986 105.617 29.4722 105.617 30.367C105.617 30.7504 105.236 30.9805 105.236 31.185C105.236 31.4151 105.541 31.5429 105.541 31.6707C105.541 32.0031 105.262 32.1053 105.262 32.361C105.262 32.4632 105.287 32.591 105.287 32.6933C105.287 33.0512 105.16 33.3835 105.135 33.7414C105.084 33.9715 104.855 34.1249 104.855 34.3549C104.855 34.3805 104.88 34.4061 104.88 34.4316C104.88 34.7895 104.525 35.1219 104.525 35.6076C104.525 36.4256 104.423 37.167 104.423 38.0106C104.423 38.4707 104.448 39.0076 104.83 39.0076C105.389 39.0076 106.939 35.2752 106.939 35.3775C106.939 35.2497 107.117 34.5083 107.27 34.5083C107.371 34.5083 107.753 35.6076 107.829 35.6076ZM101.729 24.6151C100.483 24.7174 99.3393 24.973 98.348 25.4587C97.5092 25.8678 96.7975 26.1234 95.9333 26.1234C94.2303 26.1234 92.6289 24.7941 92.6289 23.1835C92.6289 23.0302 92.6798 22.8512 92.8577 22.8512C93.7219 22.8512 94.2811 24.0016 95.0691 24.0016C95.1707 24.0016 95.247 24.0016 95.3487 23.976C97.0771 23.5926 98.5259 23.0046 100.559 23.0046C100.61 23.0046 103.127 23.0046 103.127 23.9505C103.127 24.0272 102.847 24.6918 101.957 24.6918C101.881 24.6918 101.805 24.6663 101.729 24.6151ZM104.931 35.3775C104.906 35.3264 104.88 35.2752 104.88 35.2241C104.906 35.2241 104.931 35.1985 104.957 35.1985C104.931 35.2497 104.931 35.3008 104.931 35.3775ZM104.906 35.3519L104.931 35.3775C104.906 35.3264 104.88 35.3264 104.855 35.3264C104.855 35.3264 104.83 35.3264 104.83 35.3519C104.855 35.3519 104.88 35.3519 104.906 35.3519Z" fill="white"/>
<path d="M128.411 33.9204C128.132 34.8151 127.725 35.7098 127.42 36.579C127.064 37.5504 126.962 38.9564 126.581 39.5188C126.581 39.57 126.073 40.6436 126.073 42.1519C126.073 42.7654 125.793 43.0466 125.488 43.5835C125.259 43.9925 124.7 43.9925 124.293 43.9925C123.455 43.9925 123.556 43.609 123.023 43.2767C122.718 43.0978 122.794 42.6887 122.616 42.5609C122.26 42.203 122.311 41.7429 122.285 41.2827C122.285 41.0015 122.336 40.7715 122.336 40.4903C122.336 40.1579 121.93 40.0045 121.93 39.6466C121.93 38.394 121.98 37.0391 122.082 35.7609C122.184 34.5083 122.108 32.6933 122.616 32.0031C122.667 31.9519 122.718 31.8241 122.718 31.7219C122.718 31.5429 122.667 31.364 122.667 31.1595C122.667 30.9038 122.743 30.6226 122.743 30.3414C122.743 30.2136 122.692 30.0858 122.692 29.958C122.692 29.6512 123.099 29.5489 123.099 29.3444C123.048 29.0632 122.972 28.8076 122.895 28.5264C121.777 28.6798 122.285 29.2933 121.675 29.37C121.447 29.4467 121.421 29.9324 121.116 30.0858C120.633 30.3414 120.837 30.5459 120.023 31.0316C119.718 31.4918 120.074 32.2587 119.362 32.4121C118.956 32.6933 119.083 32.7955 118.956 33.1023C118.803 33.5113 118.269 33.9715 118.193 34.5083C118.168 34.6361 118.066 34.7895 117.99 34.9173C117.278 36.3489 116.999 37.9339 115.143 37.9339C114.228 37.9339 113.415 37.1158 113.415 35.4031C113.415 34.5595 113.694 33.7158 113.821 32.8978C113.872 32.4888 114.177 32.2076 114.253 31.7474C114.38 30.9805 114.787 30.6226 115.372 29.4467C115.702 28.9865 116.109 28.4753 116.312 27.9129C116.541 27.2738 117.685 26.9414 118.269 26.9414C118.778 26.9414 119.312 27.0948 119.82 27.376C120.176 27.5805 120.455 28.2196 120.684 28.2196C121.065 28.1685 121.701 27.0692 122.463 26.8136C122.794 26.7114 123.251 26.1745 123.658 26.1745C124.395 26.1745 125.183 26.6091 125.183 27.376C125.132 28.3219 125.183 29.2933 124.776 30.2136C124.446 31.185 124.7 33.1023 124.293 33.588C123.887 34.2271 123.861 35.991 123.861 37.0647C123.861 37.1414 123.887 37.2181 123.887 37.3203C123.887 37.6782 123.76 38.0361 123.76 38.394C123.76 39.2376 123.963 40.1324 123.963 40.6181C123.963 40.6948 123.938 40.7715 123.938 40.8482C123.938 40.8737 124.141 41.8196 124.293 41.8196C124.446 41.8196 124.7 41.1294 124.903 40.797C125.234 40.2602 125.259 39.1865 125.539 38.394C125.768 37.7038 125.971 36.5279 126.327 36.17C126.581 36.0166 126.556 34.585 127.013 33.997C127.471 33.4091 127.699 32.6422 128.335 32.0542C128.335 32.0542 128.64 32.0542 128.64 32.6677C128.64 32.9489 128.589 33.3579 128.411 33.9204ZM120.049 28.8332C119.871 28.6798 119.617 28.6031 119.413 28.6031C119.21 28.6031 119.032 28.6542 118.829 28.782C117.227 29.9324 116.236 32.182 115.728 34.1249C115.702 34.1504 115.702 34.176 115.702 34.2271C115.702 34.2782 115.753 34.4061 115.804 34.4061C116.033 34.4061 117.024 33.0001 117.38 32.4377C117.736 31.8752 118.142 31.3384 118.625 30.9038C119.032 30.5459 119.21 29.9835 119.693 29.7023C119.667 29.7023 119.947 29.191 120.074 28.9354C120.074 28.9098 120.049 28.8843 120.049 28.8332Z" fill="white"/>
<path d="M144.89 33.4091C144.966 33.5625 145.017 33.6903 145.119 33.8948C144.687 34.176 144.102 34.4316 143.695 34.8151C143.365 34.8151 142.018 35.7098 142.018 36.9369C142.018 37.0136 142.043 37.0647 142.043 37.1158C142.043 37.2181 142.018 37.2948 141.992 37.3459C141.611 37.9339 141.408 38.2151 141.408 38.8286C141.408 39.0587 141.433 39.2888 141.433 39.4933C141.433 40.2857 141.306 41.0271 141.052 41.7429C140.849 42.1263 140.95 42.5865 140.696 42.9444C140.493 43.2256 140.62 43.7624 140.417 43.9158C140.01 44.2481 140.162 44.8617 139.984 45.0406C139.552 45.2451 139.756 45.6797 139.603 46.012C139.603 46.012 139.629 45.9865 139.654 45.9865C139.425 46.2421 138.942 47.0602 138.942 47.0602C138.942 47.6993 138.866 47.7504 138.383 47.9038C138.383 49.7188 136.121 50 135.638 50C135.13 50 133.503 49.2331 133.503 48.0571C133.503 47.2647 133.655 46.4211 133.681 45.6286C133.706 44.8361 134.418 43.7624 134.52 42.7143C134.57 42.1008 135.308 41.3083 135.308 41.1294C135.409 40.5414 135.816 40.1068 136.172 39.6722C136.68 39.0076 137.29 38.2151 138.078 37.3203C138.332 37.0391 138.714 37.0647 138.891 36.6812C139.324 35.7354 140.874 35.3775 140.874 34.2271C140.874 33.8692 141.23 32.77 141.23 32.361C141.23 32.2076 141.179 32.0286 141.179 31.8497C141.179 31.4662 141.306 30.9294 141.332 30.4692C141.332 30.4437 141.23 30.3925 141.179 30.3925C140.772 30.4437 140.544 31.0316 140.035 31.1595C139.959 31.185 139.298 31.6452 139.298 31.9775C139.298 32.2331 139.095 32.4888 138.586 32.5143C138.561 32.6166 138.18 33.7925 137.697 33.7925C137.468 33.7925 136.96 34.7895 136.883 35.1985C136.756 35.8888 135.994 36.2211 135.384 36.2211C134.57 36.2211 133.198 36.2467 133.198 33.3579C133.198 32.5399 133.579 31.8752 133.579 31.2362C134.24 30.0091 134.189 29.2677 135.994 28.0151C136.782 27.4527 137.544 26.9926 138.358 26.9926C139.476 26.9926 140.722 27.4271 140.722 28.2452C140.722 28.4753 140.594 28.7565 140.315 28.7565C139.934 28.7565 139.349 28.2196 138.968 28.2196C138.815 28.2196 138.688 28.2452 138.536 28.2963C138.154 28.4753 134.926 30.3925 134.926 32.7444C134.926 32.8211 134.952 32.9234 134.952 33.0256C134.952 33.358 134.799 33.6647 134.799 34.0482C134.799 34.3038 134.85 34.6873 135.079 34.6873C135.409 34.6873 136.528 33.2557 137.239 32.6933C137.239 32.6933 138.129 32.4377 138.459 31.5685C138.51 31.4662 138.612 31.3384 138.714 31.2873C139.12 31.1083 139.349 30.776 139.527 30.3925C139.705 30.0347 140.188 30.0858 140.34 29.6256C140.34 29.37 140.925 29.2933 141.027 29.0121C141.154 28.6031 141.789 28.1941 142.221 28.1941C143.263 28.1941 143.543 28.5008 143.543 29.3189C143.543 30.3159 143.136 31.2617 143.035 32.2587C143.009 32.5655 142.704 33.0256 142.704 33.1534C142.704 33.4091 143.06 33.4091 143.212 33.4091C143.492 33.4091 144 33.1023 144.331 33.1023C144.56 33.1023 144.763 33.2301 144.89 33.4091ZM140.34 40.5414C140.366 40.4903 140.391 40.4391 140.391 40.388C140.391 40.0557 139.959 39.979 139.959 39.7489C139.959 39.4933 140.162 39.0587 140.239 38.803C140.213 38.7519 140.213 38.6752 140.213 38.6241C140.213 38.394 140.315 38.1895 140.391 37.9594C140.391 37.8827 140.315 37.7805 140.213 37.7805C140.188 37.7805 140.162 37.7805 140.137 37.8061C139.095 38.6497 138.688 39.8 137.748 40.5925C137.316 40.976 137.29 41.5128 136.934 41.973C136.4 42.6632 135.435 45.0406 135.435 46.2421C135.358 46.6 135.18 46.8301 135.18 47.1624C135.18 47.4436 135.231 48.4662 135.663 48.4662C135.892 48.4662 136.197 48.3895 136.4 48.2105C136.782 47.7248 138.053 46.8557 138.053 46.1399C138.053 45.8587 138.663 45.1173 138.764 44.5293C138.79 44.4271 139.451 43.8136 139.451 43.609C139.451 43.4812 139.171 43.379 139.044 43.2767C139.069 43.2512 139.908 41.3339 139.908 40.976C139.908 40.8482 139.883 40.7715 139.883 40.6948C139.883 40.5925 139.934 40.5414 139.984 40.4647C140.086 40.4647 140.188 40.6181 140.239 40.6181C140.264 40.6181 140.289 40.5925 140.34 40.5414Z" fill="white"/>
<path d="M146.193 34.2271C146.168 34.2016 146.142 34.1504 146.142 34.0737C146.142 33.4602 146.6 31.5174 146.676 31.1595C146.676 31.1339 146.854 30.2136 147.184 29.958C147.21 29.9068 148.048 26.8647 148.684 26.8647C148.862 26.8647 149.167 26.9159 149.319 26.9159C149.574 26.9159 149.904 26.558 149.955 26.6602C150.031 26.7369 150.107 26.7625 150.184 26.7625C150.514 26.7625 150.87 26.5835 151.251 26.5835C151.378 26.5835 151.505 26.6858 151.632 26.6858C151.759 26.6858 151.861 26.5835 151.963 26.5835C151.988 26.5835 152.014 26.5835 152.039 26.5835C152.395 26.9414 152.624 26.9414 153.005 26.9414C153.03 26.9414 153.081 26.9414 153.107 26.9414C153.717 26.9414 154.632 28.0151 154.632 28.5519C154.632 28.6031 154.606 28.6798 154.606 28.7309C154.606 29.1399 154.988 29.5489 154.988 30.0347C154.988 30.2647 154.53 30.0091 154.53 30.5971C154.53 30.7249 154.53 30.8783 154.53 31.0061C154.53 31.1595 154.53 31.3384 154.479 31.4918C154.555 31.594 154.682 31.7219 154.682 31.8497C154.682 31.9519 154.581 31.9519 154.581 32.1564C154.581 32.2331 154.632 32.3354 154.632 32.4121C154.632 32.6677 154.327 32.8467 154.25 32.9489C154.174 33.0001 154.098 32.7955 154.022 32.7955C153.971 32.7955 153.945 33.0001 153.895 32.9489C153.971 33.179 153.971 33.4091 153.971 33.6647C153.971 33.8948 153.895 34.0482 153.793 34.3549C153.793 34.6617 153.818 35.4797 153.666 35.582C153.234 35.8888 153.361 37.2181 153.005 37.2181C152.929 37.2181 152.852 37.1925 152.751 37.1925C152.395 38.4452 152.192 38.5218 151.683 39.2376C151.2 39.4166 150.997 39.4933 150.717 39.4933C150.616 39.4933 150.514 39.4677 150.412 39.4166C150.26 39.4166 150.082 39.57 149.929 39.57C149.472 39.57 149.192 39.0587 148.862 39.0587C147.998 38.6752 147.337 37.6271 146.828 36.8091C146.828 36.4767 146.244 35.0452 146.244 34.6361C146.244 34.5594 146.295 34.3805 146.269 34.3549C146.193 34.2271 146.193 34.2271 146.193 34.2271ZM147.26 35.8376C147.26 35.7865 147.26 35.7609 147.26 35.7609C147.26 35.5309 147.184 35.4797 147.083 35.4797L147.032 35.5309C147.032 35.7354 146.981 35.8376 147.26 35.8376ZM147.82 33.9715C147.82 33.9715 147.871 33.8948 147.871 33.8437C147.871 33.6647 147.794 33.6647 147.794 33.6647C147.718 33.6647 147.616 33.7925 147.616 33.8437C147.616 33.8437 147.743 33.9715 147.82 33.9715ZM148.099 33.4858L148.176 33.4091C148.176 33.3324 148.176 33.3324 148.099 33.2557C148.099 33.3835 148.099 33.3068 148.099 33.4858ZM148.303 37.8572C148.303 37.8572 148.303 37.7805 148.353 37.7805C148.303 37.7805 148.303 37.7805 148.303 37.7805V37.7038C148.303 37.7805 148.176 37.7805 148.176 37.7805L148.303 37.8572ZM148.303 34.3549C148.582 34.3549 148.506 34.176 148.582 34.176C148.531 34.0993 148.481 34.0226 148.455 34.0226C148.404 34.0226 148.328 34.176 148.176 34.2271L148.303 34.3549ZM148.531 35.0196C148.582 35.0196 148.582 34.9685 148.582 34.9685C148.608 34.9173 148.506 34.8918 148.531 34.7895C148.481 34.994 148.43 34.8407 148.43 34.9685C148.43 35.0196 148.531 35.0196 148.531 35.0196ZM148.582 33.1279C148.582 32.9489 148.658 32.8722 148.43 32.8722C148.43 32.9489 148.353 33.1023 148.531 33.179C148.531 33.179 148.582 33.179 148.582 33.1279ZM153.081 33.2557C153.081 32.9745 153.107 32.7955 153.107 32.591C153.107 32.3098 152.852 31.9775 152.852 31.8497C152.852 31.7474 153.056 31.4918 153.056 31.2362C153.056 30.6226 152.827 29.9835 152.827 29.6256C152.827 29.3956 151.963 27.8106 151.378 27.8106C151.175 27.8106 150.743 28.0151 150.539 28.0151C150.489 28.0151 150.463 27.9895 150.438 27.9895C150.031 27.9895 148.684 30.2136 148.684 32.0286C148.684 32.3865 148.633 32.8211 148.76 33.179C148.76 34.6617 148.989 35.2497 149.141 36.17C149.345 36.5279 150.056 37.5249 150.514 37.5249C151.073 37.5249 152.192 35.6076 152.395 34.8918C152.522 34.3549 152.7 33.767 153.081 33.2557ZM153.793 30.3414C153.793 30.2647 153.895 30.2647 153.895 30.2647L153.793 30.2136C153.793 30.2647 153.793 30.2136 153.793 30.3414ZM154.479 31.5685V31.4918C154.403 31.6452 154.327 31.5174 154.327 31.6452C154.327 31.6707 154.377 31.7474 154.479 31.7474C154.479 31.6196 154.479 31.594 154.479 31.5685Z" fill="white"/>
<path d="M168.212 30.9805C167.856 30.9805 167.424 31.0572 167.144 31.0572C167.042 31.0572 166.966 31.0061 166.864 31.0061C166.737 31.0061 166.585 31.0572 166.458 31.0572C165.136 31.0572 163.789 30.0091 163.611 28.4241C163.713 27.964 163.84 27.6061 163.916 27.2482C164.068 26.6091 164.78 26.6602 165.111 26.2256C165.161 26.1745 166.229 25.9444 166.559 25.9444C166.941 25.9444 167.322 25.9956 167.729 26.0723C167.83 26.1745 167.932 26.2001 168.034 26.2001C168.11 26.2001 168.212 26.1745 168.313 26.1745C168.796 26.1745 168.796 26.7369 169.101 26.788C169.686 26.788 169.737 27.4271 169.737 27.8617C169.737 28.1429 169.711 28.3219 169.711 28.5264C169.711 28.9354 170.245 28.9865 170.55 28.9865C170.728 28.9865 170.906 28.9098 171.084 28.9098C171.262 28.9098 171.414 28.9354 171.567 28.9354C171.821 28.9354 172.075 28.8587 172.329 28.8587C172.863 28.8587 173.397 29.2166 173.6 29.2166C173.651 29.2166 173.676 29.191 173.727 29.1655C174.236 29.2677 174.566 29.6001 174.795 30.0347C174.795 30.3414 175.125 30.5204 175.125 30.8271C175.049 32.0286 174.642 33.1023 174.642 34.1249C174.642 35.0707 174.693 36.0422 174.693 36.988C174.693 37.4226 174.464 37.8061 174.464 38.2406C174.464 38.5218 174.541 38.8286 174.541 39.1098C174.541 39.3399 174.49 39.57 174.337 39.7745C174.236 40.0557 174.286 40.3113 174.108 40.5925C173.931 40.8737 173.168 41.794 172.761 41.794C172.533 41.794 171.77 40.797 171.77 40.2602C171.77 40.2091 171.77 40.1579 171.795 40.1068C171.795 39.979 171.49 39.2632 171.49 38.8542C171.49 38.7519 171.567 38.6241 171.567 38.5218C171.567 38.1639 171.49 37.7805 171.49 37.4226C171.49 36.0677 171.745 34.7128 171.999 33.3835C172.177 32.4888 172.177 31.5429 172.406 30.6482C172.406 30.3414 172.151 30.3159 171.795 30.3159C171.719 30.3159 171.643 30.3159 171.592 30.3414C171.109 30.5204 169.177 30.188 169.177 32.1053C169.177 32.5655 168.796 32.8211 168.694 34.5595C168.669 34.8662 168.669 35.1985 168.466 35.4797C168.44 35.5053 168.44 35.5309 168.44 35.5564C168.389 36.5279 167.881 37.3715 167.779 38.3429C167.779 38.3685 167.779 38.394 167.754 38.4196C167.729 38.5218 166.839 39.7745 166.076 39.7745C165.238 39.7745 165.009 38.8542 164.551 38.2662C164.018 37.6015 163.789 36.2978 163.789 35.3519C163.789 34.8918 164.221 34.764 164.628 34.764C165.085 34.764 165.899 34.8407 165.899 35.582C165.899 35.7865 165.797 35.991 165.797 36.17C165.797 36.4512 165.975 37.1158 166.204 37.1158C166.254 37.1158 166.28 37.0647 166.305 37.0136C166.941 35.4797 167.576 33.9204 168.008 32.361C168.084 32.0286 168.339 31.6707 168.339 31.3895C168.339 31.2617 168.288 31.1339 168.212 30.9805ZM166.788 29.2933C166.89 29.3189 167.017 29.3444 167.119 29.3444C167.703 29.3444 168.44 29.2422 168.44 28.782C168.44 28.3986 167.856 27.0948 166.966 27.0948C166.356 27.0948 165.238 27.4783 165.238 28.4497C165.238 28.9865 165.721 29.3189 166.305 29.3189C166.458 29.3189 166.61 29.2933 166.788 29.2933Z" fill="white"/>
</svg>
