<svg width="51" height="63" viewBox="0 0 51 63" fill="none" xmlns="http://www.w3.org/2000/svg">
<path d="M9.42639 0.343803C9.04818 0.447766 8.79366 0.673615 8.58752 1.08947C8.47639 1.31352 8.45847 1.36371 7.70026 3.76919C6.99761 5.99363 5.94902 9.28996 4.92732 12.4805C4.48638 13.8643 2.46269 20.1738 2.2243 20.9141C1.05382 24.5492 0.333252 26.8507 0.333252 26.9582C0.333252 26.9851 0.344007 26.9995 0.365516 26.9995C0.381648 26.9995 0.593158 27.0156 0.83514 27.0353C1.96618 27.1267 2.80505 27.1518 3.21015 27.107C4.17987 26.9977 4.60289 26.6177 5.0743 25.4311C5.24459 25.0027 5.66582 23.7264 5.72855 23.4504C5.84327 22.9413 6.06195 22.6886 6.48497 22.5721C6.69827 22.5147 6.8578 22.5093 7.78092 22.5219C9.69526 22.5506 14.3198 22.5488 15.9097 22.5165C16.6339 22.5022 16.8776 22.5147 17.0927 22.5739C17.453 22.6725 17.7237 22.9288 17.9011 23.341C17.937 23.4253 18.0535 23.7605 18.1593 24.0867C18.5034 25.1425 18.7293 25.7322 18.9246 26.0763C19.2921 26.727 19.6972 26.9833 20.511 27.0801C20.8246 27.1178 21.7262 27.1178 22.506 27.0819C22.9684 27.0604 23.076 27.0496 23.205 27.0138L23.3574 26.9726L23.352 26.8919C23.3305 26.589 23.2929 26.4241 23.1082 25.8523C22.929 25.2948 22.074 22.633 19.8836 15.8055C18.1628 10.4479 16.9458 6.64429 15.7753 2.96258C15.4544 1.95164 15.1784 1.11456 15.1372 1.03031C14.9991 0.734559 14.8378 0.553521 14.612 0.444181C14.3843 0.333048 14.3001 0.318709 13.8574 0.318709C13.6405 0.320501 13.2533 0.329463 12.9988 0.34201C12.4503 0.367105 11.3103 0.368897 10.8908 0.343803C10.7277 0.334841 10.3621 0.324086 10.0753 0.318709C9.59668 0.309746 9.5447 0.311539 9.42639 0.343803ZM14.1406 11.7474C15.3308 15.4255 16.3023 18.4387 16.2987 18.444C16.2897 18.4512 7.37403 18.453 7.36865 18.4458C7.36686 18.4423 8.3079 15.4955 9.45866 11.898C10.6112 8.29873 11.5738 5.2892 11.5989 5.20674L11.6455 5.05976H11.8104H11.9753L14.1406 11.7474Z" fill="white"/>
<path d="M29.855 13.7316V27.0298L31.0882 27.0406C31.7657 27.0477 33.042 27.0675 33.9239 27.0836C35.9189 27.1212 39.493 27.1248 40.4215 27.0926C41.3841 27.0585 42.2104 27.0173 42.8324 26.9725C44.6894 26.8362 46.4137 26.0099 47.7885 24.5957C49.2207 23.1223 50.0936 21.2348 50.3105 19.1484C50.3446 18.8168 50.3392 17.9008 50.3016 17.5585C50.0345 15.1888 48.8264 13.0558 46.9461 11.6362C46.0122 10.9318 44.9636 10.4334 43.8057 10.1449C43.1353 9.97637 42.6012 9.90647 41.8017 9.88137C41.506 9.87241 39.7278 9.86345 37.8493 9.86345C35.9708 9.86345 34.3594 9.86345 34.2698 9.86345H34.1031V7.20165V4.53985H34.1981C34.2483 4.53985 37.2381 4.53985 40.8392 4.53985H47.3852V2.48748V0.435116H38.6201H29.855V13.7316ZM41.5597 13.7728C42.0043 13.8069 42.4739 13.9072 42.8915 14.0596C43.3432 14.2245 43.9079 14.5436 44.3022 14.8572C44.4976 15.015 44.8704 15.386 45.0263 15.5814C45.9226 16.7053 46.2291 18.0765 45.9064 19.5176C45.7218 20.3404 45.2934 21.1147 44.6965 21.708C43.8881 22.5146 42.8306 22.9789 41.5938 23.0739C41.3769 23.09 34.0888 23.1025 34.0726 23.0864C34.0691 23.081 34.0655 19.0319 34.0673 14.6009V13.7531L36.2325 13.7477C39.1059 13.7405 41.2622 13.7495 41.5597 13.7728Z" fill="white"/>
<path d="M10.2725 34.2785C9.32791 34.3305 8.11441 34.5384 7.36875 34.7768C6.51375 35.0493 5.75195 35.4562 5.05827 36.0118C4.76969 36.2431 4.27497 36.7396 4.04016 37.0336C3.02383 38.3098 2.48251 39.9051 2.4843 41.6151C2.48609 43.3197 3.10091 44.8827 4.5044 46.7523C4.66931 46.9745 4.80733 47.1609 4.81091 47.1681C4.8145 47.1735 4.69261 47.3043 4.54204 47.4549C3.53648 48.4676 2.81411 49.6202 2.38213 50.9018C2.16883 51.5363 2.03798 52.1225 1.95194 52.8377C1.92685 53.0528 1.91968 53.2463 1.91968 53.8056C1.91968 54.5172 1.92864 54.6678 2.00213 55.1768C2.2226 56.7147 2.83383 58.1953 3.68166 59.2457C4.27855 59.9824 5.28412 60.7549 6.26639 61.2282C7.61611 61.8806 9.12536 62.1799 10.882 62.1441C11.1688 62.1387 11.5506 62.1208 11.7334 62.1047C14.535 61.8609 16.5784 60.746 18.0769 58.6452C18.1576 58.5323 18.2275 58.4391 18.2328 58.4391C18.2364 58.4391 18.7813 58.8585 19.4428 59.373C20.3479 60.0756 20.6509 60.3015 20.667 60.2871C20.6778 60.2746 21.2119 59.6275 21.8554 58.846L23.0241 57.4263L22.9649 57.3726C22.9327 57.3421 22.7391 57.1736 22.5329 56.9962C22.3286 56.8187 22.0257 56.557 21.8626 56.4154C21.4306 56.0426 21.09 55.7719 20.7064 55.4995C20.5218 55.3668 20.2978 55.1912 20.2081 55.1069C19.8425 54.7628 19.6094 54.3702 19.4947 53.9042C19.4051 53.5421 19.3997 53.336 19.4392 51.9504C19.4589 51.2693 19.4607 50.7243 19.4481 49.432L19.432 47.7829H17.3886H15.3452L15.3416 48.3117C15.3398 48.6021 15.338 49.2527 15.3362 49.7564V50.6742L15.2233 50.6939C15.1606 50.7046 15.0996 50.7136 15.0889 50.7136C15.0781 50.7136 14.8899 50.5666 14.6694 50.3856C14.449 50.2063 13.6854 49.5826 12.9702 49.0018C10.0431 46.6232 8.21121 45.0817 7.7129 44.5762C7.0945 43.9506 6.7145 43.239 6.56931 42.4396C6.51554 42.1474 6.51016 41.5183 6.55856 41.2225C6.72347 40.2259 7.1429 39.4229 7.76309 38.9246C8.50158 38.3295 9.64338 38.032 11.0523 38.0642C11.6312 38.0768 11.9682 38.1323 12.4593 38.2936C13.3287 38.5804 14.0277 39.1074 14.6999 39.9821L14.7358 40.0287L16.4995 39.2221C17.471 38.7794 18.2669 38.4137 18.2687 38.412C18.2705 38.4102 18.1952 38.3187 18.102 38.2112C18.007 38.1019 17.7543 37.8043 17.5392 37.5462C16.6411 36.4707 16.3042 36.1391 15.6607 35.691C14.1425 34.6352 12.3572 34.1674 10.2725 34.2785ZM8.27574 50.1794C8.5464 50.2798 8.72206 50.4035 9.24546 50.8677C10.0646 51.5955 11.063 52.4361 12.531 53.6353C12.9953 54.0135 13.7427 54.6265 14.1944 54.9976C14.6479 55.3668 15.0333 55.6823 15.0548 55.6984C15.0907 55.7271 15.0907 55.7307 15.0602 55.806C15.0046 55.9476 14.8146 56.2935 14.6838 56.4943C14.1371 57.3278 13.4111 57.8673 12.4557 58.1505C11.5721 58.4122 10.2582 58.4516 9.25979 58.2491C8.36357 58.0663 7.61611 57.654 7.08913 57.0535C6.5729 56.4656 6.14092 55.4869 5.99931 54.5853C5.94016 54.2143 5.92403 53.6514 5.96167 53.3127C6.04412 52.558 6.27535 51.8877 6.68403 51.1976C7.05866 50.5684 7.37951 50.2511 7.738 50.149C7.87602 50.1095 8.12338 50.1239 8.27574 50.1794Z" fill="white"/>
<path d="M35.6447 34.8144C34.9009 34.8216 33.9975 34.8323 33.6372 34.8395C33.2769 34.8467 32.2552 34.8592 31.3661 34.8682C30.348 34.8789 29.735 34.8915 29.7153 34.9022C29.6956 34.913 29.6669 34.9399 29.6507 34.965C29.6239 35.0062 29.6221 36.0028 29.6221 48.2399V61.4683H31.7013H33.7806V56.7792C33.7806 54.1998 33.7824 52.0865 33.7842 52.083C33.7877 52.0812 35.5444 52.074 37.6881 52.0704C41.61 52.0614 41.9614 52.0561 42.474 51.9951C44.4009 51.7621 46.1933 50.8838 47.5915 49.4857C49.3355 47.7434 50.2138 45.4688 50.0561 43.1099C49.9235 41.1472 49.1993 39.3278 47.9446 37.8078C47.7456 37.5676 47.1434 36.96 46.9103 36.7646C45.6879 35.7429 44.2826 35.1299 42.7966 34.9686C42.5457 34.9417 41.8233 34.8987 41.2641 34.8771C41.1171 34.8718 40.9181 34.8628 40.8249 34.8592C39.9735 34.818 37.5519 34.7965 35.6447 34.8144ZM40.323 38.8313C40.9916 38.8564 41.7678 38.8994 42.0617 38.9299C43.5029 39.0769 44.8149 40.1774 45.4316 41.7548C45.6 42.1868 45.7076 42.6331 45.7542 43.1027C45.7829 43.3716 45.7685 43.9524 45.7273 44.2069C45.4495 45.9599 44.1213 47.4943 42.5331 47.9011C42.1926 47.9872 41.9255 48.0123 40.8518 48.0607C40.1581 48.0929 38.242 48.1019 36.8098 48.0804C36.0462 48.0696 35.0604 48.0553 34.6177 48.0499L33.8164 48.0374L33.82 43.4558L33.8254 38.8743L34.9277 38.8618C35.5336 38.8528 36.3778 38.8403 36.8009 38.8313C37.7186 38.8134 39.805 38.8134 40.323 38.8313Z" fill="white"/>
</svg>
