<svg width="358" height="70" viewBox="0 0 358 70" fill="none" xmlns="http://www.w3.org/2000/svg">
<path d="M50.3639 24.6801H28.1239V18.9201H50.3639C49.6279 17.5761 48.2199 16.3601 45.6599 16.3601H26.9719C26.0759 16.3601 25.5639 16.8401 25.5639 17.6401V18.2801H15.4519V17.6401C15.4519 13.4801 19.3879 10.2801 25.3719 10.2801H50.0119C56.1879 10.2801 61.2119 15.6241 61.2119 21.8001C61.2119 27.9761 56.1879 33.3201 50.0119 33.3201H25.3719C19.3879 33.3201 15.4519 30.1201 15.4519 25.9601V25.3201H25.5639V25.9601C25.5639 26.7601 26.0759 27.2401 26.9719 27.2401H45.6599C48.2199 27.2401 49.6279 26.0241 50.3639 24.6801Z" fill="white"/>
<path d="M105.699 10.6001V33.0001H95.5874V20.2001L73.2514 33.0001H63.1394V10.6001H73.2514V23.4001L95.5874 10.6001H105.699ZM84.4194 3.33606C88.6434 3.33606 91.6514 2.15206 94.3074 0.456055L97.8274 5.64006C95.4274 7.24006 91.3634 9.64006 84.4194 9.64006C77.4754 9.64006 73.4114 7.24006 71.0114 5.64006L74.5314 0.456055C77.1874 2.15206 80.1954 3.33606 84.4194 3.33606Z" fill="white"/>
<path d="M139.304 18.2801H118.376V20.8401H139.304C140.2 20.8401 140.712 20.3601 140.712 19.5601C140.712 18.7601 140.2 18.2801 139.304 18.2801ZM118.376 33.0001H108.264V10.6001H141.864C147.464 10.6001 150.824 15.0801 150.824 19.5601C150.824 24.0401 147.464 28.5201 141.864 28.5201H118.376V33.0001Z" fill="white"/>
<path d="M169.389 33.0001V10.6001H179.501V22.8881L197.293 10.6001H211.949L195.725 21.8001L211.949 33.0001H197.293L188.397 26.8561L179.501 33.0001H169.389Z" fill="white"/>
<path d="M213.889 33.0001V10.6001H252.289V18.2801H224.001V33.0001H213.889Z" fill="white"/>
<path d="M297.418 10.6001V33.0001H287.306V20.2001L264.97 33.0001H254.858V10.6001H264.97V23.4001L287.306 10.6001H297.418Z" fill="white"/>
<path d="M299.983 33.0001V10.6001H310.095V22.8881L327.887 10.6001H342.543L326.319 21.8001L342.543 33.0001H327.887L318.991 26.8561L310.095 33.0001H299.983Z" fill="white"/>
<path d="M135.884 40.7081C136.1 40.8881 136.244 41.1401 136.244 41.3561C136.244 41.8241 135.704 42.2921 134.804 42.2921C134.588 42.2921 134.372 42.2561 134.156 42.2201C132.86 42.6161 131.6 43.1561 130.448 43.8401C129.692 44.3081 129.836 45.1721 129.764 45.7481C129.656 46.5761 129.26 47.0441 129.26 47.8361C129.26 48.4121 128.648 48.5921 128.648 49.2401C128.648 49.3481 128.684 49.4561 128.684 49.5641C128.684 50.2121 128.396 50.6081 127.964 51.2201C127.748 51.9041 125.732 54.8201 124.58 54.8201C124.292 54.8201 123.68 55.3961 123.104 55.6841C122.024 55.4321 121.052 55.1801 120.296 54.4601C119.108 53.1281 118.208 50.7881 118.208 49.2761C118.208 48.4121 118.496 47.6201 118.496 46.8641C118.496 46.2521 119.288 44.8841 119.288 44.0921C119.288 43.4081 118.244 41.8601 118.244 40.7441C118.244 37.0361 119.792 36.7121 122.096 36.7121C122.6 36.7121 123.176 36.7121 123.752 36.7121C124.58 36.7121 128.576 38.1521 129.224 41.1041C129.332 41.5721 129.548 42.2561 130.088 42.2561C130.16 42.2561 130.232 42.2561 130.304 42.2201C132.176 41.5721 133.868 40.8161 135.884 40.7081ZM127.892 46.0001C127.82 45.6041 127.856 45.1001 127.496 45.1001C127.388 45.1001 127.208 45.1361 127.064 45.1721C125.876 45.6041 124.688 46.1441 123.356 46.1441C122.24 46.1441 122.24 50.0681 122.24 50.5721C122.24 51.5081 122.78 52.6961 123.572 52.6961C125.408 52.6961 127.028 48.2681 127.496 47.9081C127.784 47.4401 127.82 46.5401 127.892 46.0001ZM120.296 40.6361C120.332 40.9241 120.368 41.7881 120.728 41.7881C121.16 41.7881 121.232 41.0321 121.736 41.0321C121.7 41.0321 124.652 41.6441 124.652 42.6521C124.652 42.9401 124.256 43.5521 124.112 43.8761C124.112 44.2001 124.436 44.2721 124.508 44.2721C125.444 44.2721 127.604 43.7681 127.604 42.8321C127.604 40.8881 124.904 37.9361 122.744 37.9361C121.196 37.9361 120.296 39.3401 120.296 40.6361Z" fill="white"/>
<path d="M158.471 49.6001C158.399 49.8161 157.715 51.6521 157.643 51.8321C157.283 53.0561 156.455 53.0561 156.455 54.5321C156.455 55.5041 155.915 56.5481 155.771 57.5201C155.411 58.2401 154.691 59.7521 152.891 59.7521C151.883 59.7521 150.839 58.7081 150.839 57.8801C150.839 57.8081 150.875 57.6641 150.947 57.4121C150.587 56.7281 150.155 56.1161 150.155 55.5041C150.155 54.9281 150.479 54.4601 150.479 51.9401C150.479 51.2201 151.055 50.6081 151.055 50.0321C151.055 49.6721 150.875 49.3121 150.875 48.9881C151.055 48.8081 151.271 48.6641 151.451 48.4841C151.307 48.1961 151.199 47.9081 151.199 47.6201C151.199 46.0361 152.207 44.3081 152.207 43.6601C152.207 43.4081 152.135 43.2281 152.135 42.9761C152.135 42.5801 152.243 42.2201 152.243 41.8241C152.243 41.6441 152.171 41.4641 152.171 41.2841C152.171 41.1401 152.207 40.9961 152.207 40.8521C152.207 40.6361 152.063 40.3841 152.063 40.1681C152.063 39.9521 152.135 39.7361 152.243 39.5561C152.135 39.5561 152.027 39.5201 151.919 39.5201C151.667 39.5201 151.379 39.7361 151.127 39.8801C150.983 40.6721 150.551 40.7441 150.047 41.0681C149.903 41.7161 149.759 42.3281 149.363 42.8321C148.679 43.6601 148.247 45.2441 147.203 46.5401C146.879 46.9361 146.843 47.8361 146.555 48.4121C145.439 50.6441 145.583 52.1921 144.179 52.1921C144.179 52.1921 141.299 52.0841 141.299 47.9801C141.299 47.8721 141.299 47.6561 141.299 47.4041C141.299 46.9361 141.263 46.4321 141.011 46.4321C140.867 46.4321 140.723 46.4681 140.615 46.5041C140.039 47.8001 139.319 49.2401 138.239 50.8241C137.555 51.8321 137.267 52.8401 135.899 52.8401C134.891 52.8401 133.739 51.1121 133.739 49.2761C133.739 48.9881 133.811 48.7001 133.811 48.3761C133.811 47.9081 133.739 47.4761 133.739 47.0081C133.739 46.3961 133.847 45.7841 133.919 45.2081C133.919 44.7761 134.531 43.8761 134.531 42.9401C134.531 42.7241 134.387 42.5081 134.387 42.2921C134.459 41.7881 134.567 41.3201 134.711 40.8521C134.999 39.9161 134.855 38.1881 135.719 38.1881C136.331 38.1881 138.275 38.8721 138.275 39.7721C138.275 39.8441 138.239 39.9161 138.203 39.9881C137.807 40.7801 137.699 41.5721 137.699 42.4361C137.699 43.6601 136.871 44.8841 136.871 46.2881C136.871 46.8281 137.051 47.4041 137.051 47.9441C137.051 48.1241 136.907 48.3401 136.907 48.5201C136.907 48.7001 137.015 48.8441 137.195 48.8441C137.447 48.7721 137.591 48.5921 137.699 48.4121C139.067 46.2881 140.867 43.4801 142.991 43.4801C143.495 43.4801 143.999 43.9121 143.999 44.4161C143.999 45.5321 143.891 46.5041 143.891 47.5481C143.891 47.5841 143.927 47.6201 143.963 47.6561C144.359 47.6561 145.151 46.3601 145.295 45.7841C145.367 45.3881 145.979 45.0641 146.267 44.5241C146.843 43.4441 146.591 43.8401 148.607 40.9601C149.111 40.2401 149.543 40.4921 149.759 39.7001C149.903 39.1601 150.479 38.9441 150.731 38.4761C150.911 38.1161 152.099 36.1001 154.259 36.1001C154.799 36.1001 155.627 36.5321 155.627 37.1441C155.627 37.2161 155.591 37.3241 155.591 37.3961C155.591 37.7201 155.771 38.0081 155.771 38.3321C155.771 39.4481 155.339 40.9601 155.339 42.2201C155.339 42.7601 154.799 43.0841 154.799 43.3721C154.799 43.6961 155.231 43.8761 155.231 44.0561C155.231 44.5241 154.835 44.6681 154.835 45.0281C154.835 45.1721 154.871 45.3521 154.871 45.4961C154.871 46.0001 154.691 46.4681 154.655 46.9721C154.583 47.2961 154.259 47.5121 154.259 47.8361C154.259 47.8721 154.295 47.9081 154.295 47.9441C154.295 48.4481 153.791 48.9161 153.791 49.6001C153.791 50.7521 153.647 51.7961 153.647 52.9841C153.647 53.6321 153.683 54.3881 154.223 54.3881C155.015 54.3881 157.211 49.1321 157.211 49.2761C157.211 49.0961 157.463 48.0521 157.679 48.0521C157.823 48.0521 158.363 49.6001 158.471 49.6001ZM149.831 34.1201C148.067 34.2641 146.447 34.6241 145.043 35.3081C143.855 35.8841 142.847 36.2441 141.623 36.2441C139.211 36.2441 136.943 34.3721 136.943 32.1041C136.943 31.8881 137.015 31.6361 137.267 31.6361C138.491 31.6361 139.283 33.2561 140.399 33.2561C140.543 33.2561 140.651 33.2561 140.795 33.2201C143.243 32.6801 145.295 31.8521 148.175 31.8521C148.247 31.8521 151.811 31.8521 151.811 33.1841C151.811 33.2921 151.415 34.2281 150.155 34.2281C150.047 34.2281 149.939 34.1921 149.831 34.1201ZM154.367 49.2761C154.331 49.2041 154.295 49.1321 154.295 49.0601C154.331 49.0601 154.367 49.0241 154.403 49.0241C154.367 49.0961 154.367 49.1681 154.367 49.2761ZM154.331 49.2401L154.367 49.2761C154.331 49.2041 154.295 49.2041 154.259 49.2041C154.259 49.2041 154.223 49.2041 154.223 49.2401C154.259 49.2401 154.295 49.2401 154.331 49.2401Z" fill="white"/>
<path d="M187.622 47.2241C187.226 48.4841 186.65 49.7441 186.218 50.9681C185.714 52.3361 185.57 54.3161 185.03 55.1081C185.03 55.1801 184.31 56.6921 184.31 58.8161C184.31 59.6801 183.914 60.0761 183.482 60.8321C183.158 61.4081 182.366 61.4081 181.79 61.4081C180.602 61.4081 180.746 60.8681 179.99 60.4001C179.558 60.1481 179.666 59.5721 179.414 59.3921C178.91 58.8881 178.982 58.2401 178.946 57.5921C178.946 57.1961 179.018 56.8721 179.018 56.4761C179.018 56.0081 178.442 55.7921 178.442 55.2881C178.442 53.5241 178.514 51.6161 178.658 49.8161C178.802 48.0521 178.694 45.4961 179.414 44.5241C179.486 44.4521 179.558 44.2721 179.558 44.1281C179.558 43.8761 179.486 43.6241 179.486 43.3361C179.486 42.9761 179.594 42.5801 179.594 42.1841C179.594 42.0041 179.522 41.8241 179.522 41.6441C179.522 41.2121 180.098 41.0681 180.098 40.7801C180.026 40.3841 179.918 40.0241 179.81 39.6281C178.226 39.8441 178.946 40.7081 178.082 40.8161C177.758 40.9241 177.722 41.6081 177.29 41.8241C176.606 42.1841 176.894 42.4721 175.742 43.1561C175.31 43.8041 175.814 44.8841 174.806 45.1001C174.23 45.4961 174.41 45.6401 174.23 46.0721C174.014 46.6481 173.258 47.2961 173.15 48.0521C173.114 48.2321 172.97 48.4481 172.862 48.6281C171.854 50.6441 171.458 52.8761 168.83 52.8761C167.534 52.8761 166.382 51.7241 166.382 49.3121C166.382 48.1241 166.778 46.9361 166.958 45.7841C167.03 45.2081 167.462 44.8121 167.57 44.1641C167.75 43.0841 168.326 42.5801 169.154 40.9241C169.622 40.2761 170.198 39.5561 170.486 38.7641C170.81 37.8641 172.43 37.3961 173.258 37.3961C173.978 37.3961 174.734 37.6121 175.454 38.0081C175.958 38.2961 176.354 39.1961 176.678 39.1961C177.218 39.1241 178.118 37.5761 179.198 37.2161C179.666 37.0721 180.314 36.3161 180.89 36.3161C181.934 36.3161 183.05 36.9281 183.05 38.0081C182.978 39.3401 183.05 40.7081 182.474 42.0041C182.006 43.3721 182.366 46.0721 181.79 46.7561C181.214 47.6561 181.178 50.1401 181.178 51.6521C181.178 51.7601 181.214 51.8681 181.214 52.0121C181.214 52.5161 181.034 53.0201 181.034 53.5241C181.034 54.7121 181.322 55.9721 181.322 56.6561C181.322 56.7641 181.286 56.8721 181.286 56.9801C181.286 57.0161 181.574 58.3481 181.79 58.3481C182.006 58.3481 182.366 57.3761 182.654 56.9081C183.122 56.1521 183.158 54.6401 183.554 53.5241C183.878 52.5521 184.166 50.8961 184.67 50.3921C185.03 50.1761 184.994 48.1601 185.642 47.3321C186.29 46.5041 186.614 45.4241 187.514 44.5961C187.514 44.5961 187.946 44.5961 187.946 45.4601C187.946 45.8561 187.874 46.4321 187.622 47.2241ZM175.778 40.0601C175.526 39.8441 175.166 39.7361 174.878 39.7361C174.59 39.7361 174.338 39.8081 174.05 39.9881C171.782 41.6081 170.378 44.7761 169.658 47.5121C169.622 47.5481 169.622 47.5841 169.622 47.6561C169.622 47.7281 169.694 47.9081 169.766 47.9081C170.09 47.9081 171.494 45.9281 171.998 45.1361C172.502 44.3441 173.078 43.5881 173.762 42.9761C174.338 42.4721 174.59 41.6801 175.274 41.2841C175.238 41.2841 175.634 40.5641 175.814 40.2041C175.814 40.1681 175.778 40.1321 175.778 40.0601Z" fill="white"/>
<path d="M210.962 46.5041C211.07 46.7201 211.142 46.9001 211.286 47.1881C210.674 47.5841 209.846 47.9441 209.27 48.4841C208.802 48.4841 206.894 49.7441 206.894 51.4721C206.894 51.5801 206.93 51.6521 206.93 51.7241C206.93 51.8681 206.894 51.9761 206.858 52.0481C206.318 52.8761 206.03 53.2721 206.03 54.1361C206.03 54.4601 206.066 54.7841 206.066 55.0721C206.066 56.1881 205.886 57.2321 205.526 58.2401C205.238 58.7801 205.382 59.4281 205.022 59.9321C204.734 60.3281 204.914 61.0841 204.626 61.3001C204.05 61.7681 204.266 62.6321 204.014 62.8841C203.402 63.1721 203.69 63.7841 203.474 64.2521C203.474 64.2521 203.51 64.2161 203.546 64.2161C203.222 64.5761 202.538 65.7281 202.538 65.7281C202.538 66.6281 202.43 66.7001 201.746 66.9161C201.746 69.4721 198.542 69.8681 197.858 69.8681C197.138 69.8681 194.834 68.7881 194.834 67.1321C194.834 66.0161 195.05 64.8281 195.086 63.7121C195.122 62.5961 196.13 61.0841 196.274 59.6081C196.346 58.7441 197.39 57.6281 197.39 57.3761C197.534 56.5481 198.11 55.9361 198.614 55.3241C199.334 54.3881 200.198 53.2721 201.314 52.0121C201.674 51.6161 202.214 51.6521 202.466 51.1121C203.078 49.7801 205.274 49.2761 205.274 47.6561C205.274 47.1521 205.778 45.6041 205.778 45.0281C205.778 44.8121 205.706 44.5601 205.706 44.3081C205.706 43.7681 205.886 43.0121 205.922 42.3641C205.922 42.3281 205.778 42.2561 205.706 42.2561C205.13 42.3281 204.806 43.1561 204.086 43.3361C203.978 43.3721 203.042 44.0201 203.042 44.4881C203.042 44.8481 202.754 45.2081 202.034 45.2441C201.998 45.3881 201.458 47.0441 200.774 47.0441C200.45 47.0441 199.73 48.4481 199.622 49.0241C199.442 49.9961 198.362 50.4641 197.498 50.4641C196.346 50.4641 194.402 50.5001 194.402 46.4321C194.402 45.2801 194.942 44.3441 194.942 43.4441C195.878 41.7161 195.806 40.6721 198.362 38.9081C199.478 38.1161 200.558 37.4681 201.71 37.4681C203.294 37.4681 205.058 38.0801 205.058 39.2321C205.058 39.5561 204.878 39.9521 204.482 39.9521C203.942 39.9521 203.114 39.1961 202.574 39.1961C202.358 39.1961 202.178 39.2321 201.962 39.3041C201.422 39.5561 196.85 42.2561 196.85 45.5681C196.85 45.6761 196.886 45.8201 196.886 45.9641C196.886 46.4321 196.67 46.8641 196.67 47.4041C196.67 47.7641 196.742 48.3041 197.066 48.3041C197.534 48.3041 199.118 46.2881 200.126 45.4961C200.126 45.4961 201.386 45.1361 201.854 43.9121C201.926 43.7681 202.07 43.5881 202.214 43.5161C202.79 43.2641 203.114 42.7961 203.366 42.2561C203.618 41.7521 204.302 41.8241 204.518 41.1761C204.518 40.8161 205.346 40.7081 205.49 40.3121C205.67 39.7361 206.57 39.1601 207.182 39.1601C208.658 39.1601 209.054 39.5921 209.054 40.7441C209.054 42.1481 208.478 43.4801 208.334 44.8841C208.298 45.3161 207.866 45.9641 207.866 46.1441C207.866 46.5041 208.37 46.5041 208.586 46.5041C208.982 46.5041 209.702 46.0721 210.17 46.0721C210.494 46.0721 210.782 46.2521 210.962 46.5041ZM204.518 56.5481C204.554 56.4761 204.59 56.4041 204.59 56.3321C204.59 55.8641 203.978 55.7561 203.978 55.4321C203.978 55.0721 204.266 54.4601 204.374 54.1001C204.338 54.0281 204.338 53.9201 204.338 53.8481C204.338 53.5241 204.482 53.2361 204.59 52.9121C204.59 52.8041 204.482 52.6601 204.338 52.6601C204.302 52.6601 204.266 52.6601 204.23 52.6961C202.754 53.8841 202.178 55.5041 200.846 56.6201C200.234 57.1601 200.198 57.9161 199.694 58.5641C198.938 59.5361 197.57 62.8841 197.57 64.5761C197.462 65.0801 197.21 65.4041 197.21 65.8721C197.21 66.2681 197.282 67.7081 197.894 67.7081C198.218 67.7081 198.65 67.6001 198.938 67.3481C199.478 66.6641 201.278 65.4401 201.278 64.4321C201.278 64.0361 202.142 62.9921 202.286 62.1641C202.322 62.0201 203.258 61.1561 203.258 60.8681C203.258 60.6881 202.862 60.5441 202.682 60.4001C202.718 60.3641 203.906 57.6641 203.906 57.1601C203.906 56.9801 203.87 56.8721 203.87 56.7641C203.87 56.6201 203.942 56.5481 204.014 56.4401C204.158 56.4401 204.302 56.6561 204.374 56.6561C204.41 56.6561 204.446 56.6201 204.518 56.5481Z" fill="white"/>
<path d="M212.807 47.6561C212.771 47.6201 212.735 47.5481 212.735 47.4401C212.735 46.5761 213.383 43.8401 213.491 43.3361C213.491 43.3001 213.743 42.0041 214.211 41.6441C214.247 41.5721 215.435 37.2881 216.335 37.2881C216.587 37.2881 217.019 37.3601 217.235 37.3601C217.595 37.3601 218.063 36.8561 218.135 37.0001C218.243 37.1081 218.351 37.1441 218.459 37.1441C218.927 37.1441 219.431 36.8921 219.971 36.8921C220.151 36.8921 220.331 37.0361 220.511 37.0361C220.691 37.0361 220.835 36.8921 220.979 36.8921C221.015 36.8921 221.051 36.8921 221.087 36.8921C221.591 37.3961 221.915 37.3961 222.455 37.3961C222.491 37.3961 222.563 37.3961 222.599 37.3961C223.463 37.3961 224.759 38.9081 224.759 39.6641C224.759 39.7361 224.723 39.8441 224.723 39.9161C224.723 40.4921 225.263 41.0681 225.263 41.7521C225.263 42.0761 224.615 41.7161 224.615 42.5441C224.615 42.7241 224.615 42.9401 224.615 43.1201C224.615 43.3361 224.615 43.5881 224.543 43.8041C224.651 43.9481 224.831 44.1281 224.831 44.3081C224.831 44.4521 224.687 44.4521 224.687 44.7401C224.687 44.8481 224.759 44.9921 224.759 45.1001C224.759 45.4601 224.327 45.7121 224.219 45.8561C224.111 45.9281 224.003 45.6401 223.895 45.6401C223.823 45.6401 223.787 45.9281 223.715 45.8561C223.823 46.1801 223.823 46.5041 223.823 46.8641C223.823 47.1881 223.715 47.4041 223.571 47.8361C223.571 48.2681 223.607 49.4201 223.391 49.5641C222.779 49.9961 222.959 51.8681 222.455 51.8681C222.347 51.8681 222.239 51.8321 222.095 51.8321C221.591 53.5961 221.303 53.7041 220.583 54.7121C219.899 54.9641 219.611 55.0721 219.215 55.0721C219.071 55.0721 218.927 55.0361 218.783 54.9641C218.567 54.9641 218.315 55.1801 218.099 55.1801C217.451 55.1801 217.055 54.4601 216.587 54.4601C215.363 53.9201 214.427 52.4441 213.707 51.2921C213.707 50.8241 212.879 48.8081 212.879 48.2321C212.879 48.1241 212.951 47.8721 212.915 47.8361C212.807 47.6561 212.807 47.6561 212.807 47.6561ZM214.319 49.9241C214.319 49.8521 214.319 49.8161 214.319 49.8161C214.319 49.4921 214.211 49.4201 214.067 49.4201L213.995 49.4921C213.995 49.7801 213.923 49.9241 214.319 49.9241ZM215.111 47.2961C215.111 47.2961 215.183 47.1881 215.183 47.1161C215.183 46.8641 215.075 46.8641 215.075 46.8641C214.967 46.8641 214.823 47.0441 214.823 47.1161C214.823 47.1161 215.003 47.2961 215.111 47.2961ZM215.507 46.6121L215.615 46.5041C215.615 46.3961 215.615 46.3961 215.507 46.2881C215.507 46.4681 215.507 46.3601 215.507 46.6121ZM215.795 52.7681C215.795 52.7681 215.795 52.6601 215.867 52.6601C215.795 52.6601 215.795 52.6601 215.795 52.6601V52.5521C215.795 52.6601 215.615 52.6601 215.615 52.6601L215.795 52.7681ZM215.795 47.8361C216.191 47.8361 216.083 47.5841 216.191 47.5841C216.119 47.4761 216.047 47.3681 216.011 47.3681C215.939 47.3681 215.831 47.5841 215.615 47.6561L215.795 47.8361ZM216.119 48.7721C216.191 48.7721 216.191 48.7001 216.191 48.7001C216.227 48.6281 216.083 48.5921 216.119 48.4481C216.047 48.7361 215.975 48.5201 215.975 48.7001C215.975 48.7721 216.119 48.7721 216.119 48.7721ZM216.191 46.1081C216.191 45.8561 216.299 45.7481 215.975 45.7481C215.975 45.8561 215.867 46.0721 216.119 46.1801C216.119 46.1801 216.191 46.1801 216.191 46.1081ZM222.563 46.2881C222.563 45.8921 222.599 45.6401 222.599 45.3521C222.599 44.9561 222.239 44.4881 222.239 44.3081C222.239 44.1641 222.527 43.8041 222.527 43.4441C222.527 42.5801 222.203 41.6801 222.203 41.1761C222.203 40.8521 220.979 38.6201 220.151 38.6201C219.863 38.6201 219.251 38.9081 218.963 38.9081C218.891 38.9081 218.855 38.8721 218.819 38.8721C218.243 38.8721 216.335 42.0041 216.335 44.5601C216.335 45.0641 216.263 45.6761 216.443 46.1801C216.443 48.2681 216.767 49.0961 216.983 50.3921C217.271 50.8961 218.279 52.3001 218.927 52.3001C219.719 52.3001 221.303 49.6001 221.591 48.5921C221.771 47.8361 222.023 47.0081 222.563 46.2881ZM223.571 42.1841C223.571 42.0761 223.715 42.0761 223.715 42.0761L223.571 42.0041C223.571 42.0761 223.571 42.0041 223.571 42.1841ZM224.543 43.9121V43.8041C224.435 44.0201 224.327 43.8401 224.327 44.0201C224.327 44.0561 224.399 44.1641 224.543 44.1641C224.543 43.9841 224.543 43.9481 224.543 43.9121Z" fill="white"/>
<path d="M243.992 43.0841C243.488 43.0841 242.876 43.1921 242.48 43.1921C242.336 43.1921 242.228 43.1201 242.084 43.1201C241.904 43.1201 241.688 43.1921 241.508 43.1921C239.636 43.1921 237.728 41.7161 237.476 39.4841C237.62 38.8361 237.8 38.3321 237.908 37.8281C238.124 36.9281 239.132 37.0001 239.6 36.3881C239.672 36.3161 241.184 35.9921 241.652 35.9921C242.192 35.9921 242.732 36.0641 243.308 36.1721C243.452 36.3161 243.596 36.3521 243.74 36.3521C243.848 36.3521 243.992 36.3161 244.136 36.3161C244.82 36.3161 244.82 37.1081 245.252 37.1801C246.08 37.1801 246.152 38.0801 246.152 38.6921C246.152 39.0881 246.116 39.3401 246.116 39.6281C246.116 40.2041 246.872 40.2761 247.304 40.2761C247.556 40.2761 247.808 40.1681 248.06 40.1681C248.312 40.1681 248.528 40.2041 248.744 40.2041C249.104 40.2041 249.464 40.0961 249.824 40.0961C250.58 40.0961 251.336 40.6001 251.624 40.6001C251.696 40.6001 251.732 40.5641 251.804 40.5281C252.524 40.6721 252.992 41.1401 253.316 41.7521C253.316 42.1841 253.784 42.4361 253.784 42.8681C253.676 44.5601 253.1 46.0721 253.1 47.5121C253.1 48.8441 253.172 50.2121 253.172 51.5441C253.172 52.1561 252.848 52.6961 252.848 53.3081C252.848 53.7041 252.956 54.1361 252.956 54.5321C252.956 54.8561 252.884 55.1801 252.668 55.4681C252.524 55.8641 252.596 56.2241 252.344 56.6201C252.092 57.0161 251.012 58.3121 250.436 58.3121C250.112 58.3121 249.032 56.9081 249.032 56.1521C249.032 56.0801 249.032 56.0081 249.068 55.9361C249.068 55.7561 248.636 54.7481 248.636 54.1721C248.636 54.0281 248.744 53.8481 248.744 53.7041C248.744 53.2001 248.636 52.6601 248.636 52.1561C248.636 50.2481 248.996 48.3401 249.356 46.4681C249.608 45.2081 249.608 43.8761 249.932 42.6161C249.932 42.1841 249.572 42.1481 249.068 42.1481C248.96 42.1481 248.852 42.1481 248.78 42.1841C248.096 42.4361 245.36 41.9681 245.36 44.6681C245.36 45.3161 244.82 45.6761 244.676 48.1241C244.64 48.5561 244.64 49.0241 244.352 49.4201C244.316 49.4561 244.316 49.4921 244.316 49.5281C244.244 50.8961 243.524 52.0841 243.38 53.4521C243.38 53.4881 243.38 53.5241 243.344 53.5601C243.308 53.7041 242.048 55.4681 240.968 55.4681C239.78 55.4681 239.456 54.1721 238.808 53.3441C238.052 52.4081 237.728 50.5721 237.728 49.2401C237.728 48.5921 238.34 48.4121 238.916 48.4121C239.564 48.4121 240.716 48.5201 240.716 49.5641C240.716 49.8521 240.572 50.1401 240.572 50.3921C240.572 50.7881 240.824 51.7241 241.148 51.7241C241.22 51.7241 241.256 51.6521 241.292 51.5801C242.192 49.4201 243.092 47.2241 243.704 45.0281C243.812 44.5601 244.172 44.0561 244.172 43.6601C244.172 43.4801 244.1 43.3001 243.992 43.0841ZM241.976 40.7081C242.12 40.7441 242.3 40.7801 242.444 40.7801C243.272 40.7801 244.316 40.6361 244.316 39.9881C244.316 39.4481 243.488 37.6121 242.228 37.6121C241.364 37.6121 239.78 38.1521 239.78 39.5201C239.78 40.2761 240.464 40.7441 241.292 40.7441C241.508 40.7441 241.724 40.7081 241.976 40.7081Z" fill="white"/>
</svg>
