<svg width="67" height="51" viewBox="0 0 67 51" fill="none" xmlns="http://www.w3.org/2000/svg">
<path d="M31.8238 0.926258V1.44073H30.2436H28.6635V1.99195V2.54317H25.5399H22.4163V1.9993V1.45543L21.2257 1.40398C20.5642 1.38194 19.4985 1.36724 18.8517 1.38194L17.6758 1.40398L17.6538 1.93316L17.6317 2.46233L16.8453 2.48438L16.0589 2.50642L16.0368 3.04295L16.0148 3.57946L14.4567 3.56477L12.8986 3.55742V4.09394V4.63781L14.464 4.65986L16.0221 4.67456V5.22578V5.777H16.7938H17.5656V6.32822V6.87944H17.9992C18.2344 6.87944 18.5798 6.90149 18.7709 6.92353L19.109 6.97498V7.46741C19.109 7.92308 19.1237 7.96718 19.278 8.01128C19.3662 8.03333 20.0791 8.05537 20.8582 8.05537H22.2693V9.12107V10.1868H21.4976H20.7259V10.738V11.2819L19.9395 11.3039L19.1457 11.326L19.1237 11.8551L19.1016 12.3916H18.3373H17.5656V13.4941V14.5965H16.7571H15.9486V15.699V16.8014L15.1916 16.75L14.4273 16.7059L14.3832 17.0586C14.3538 17.2497 14.3317 17.9994 14.3317 18.7197V20.0352H13.5747H12.8104L12.7663 21.4096C12.7369 22.174 12.7148 23.6586 12.7148 24.7169V26.6499H11.9431H11.1714V27.2966C11.1714 27.6568 11.1494 28.649 11.12 29.5015L11.0759 31.0596H10.3262H9.57654L9.53244 31.5521C9.50304 31.8313 9.48099 32.5737 9.48099 33.2057V34.367H8.70928H7.93757V35.4768V36.5865L7.15117 36.5571L6.35741 36.5351L6.33536 37.6155L6.31331 38.7032H5.54895H4.77724V39.2544V39.8057H3.96879H3.16033V40.9081V42.0105H2.35187H1.54342V42.5618V43.113H0.771709H0V43.6642V44.2154H1.54342H3.08683V44.7667V45.3179H4.70375H6.32066V44.8034V44.2889H7.85673H9.3928L9.44424 43.1865L9.49569 42.084H10.26H11.0244V43.1865V44.2889H11.7888H12.5531L12.6046 43.2232L12.656 42.1649L13.4057 42.1428L14.148 42.1208L14.1921 40.5039C14.2215 39.6146 14.2435 38.8796 14.2509 38.8649C14.2509 38.8576 15.3166 38.8502 16.6101 38.8502H18.962V37.7478V36.6453H20.5421H22.1223V35.0284V33.4115H23.6878H25.2606L25.3047 32.2503C25.3341 31.6182 25.3561 30.8759 25.3561 30.5966V30.1042H26.8996H28.443V29.8911C28.443 29.7808 28.465 29.5309 28.4871 29.3398L28.5385 29.0017H29.2955H30.0599V27.3481V25.6944H30.8683H31.6768V25.18V24.6655H32.4485H33.2202V23.5777C33.2202 22.9751 33.2423 22.2328 33.2643 21.9241L33.3158 21.3582H34.0728H34.8371V20.8069V20.2557H35.6456H36.454V18.6021V16.9484H37.2625H38.071V15.846V14.7435H38.8427H39.6144V13.6778V12.6121H41.1945H42.7747V13.1633V13.7146H43.5464H44.3181V14.817V15.9195H45.0898H45.8615V16.4707V17.0219H46.6773H47.5005L47.4491 17.529L47.3976 18.0435L47.6401 18.0876C47.7724 18.1096 48.4927 18.1243 49.2424 18.1096L50.602 18.0876L50.6241 17.5878L50.6461 17.0954H52.9907H55.3425V17.6466V18.2052L56.1363 18.1831L56.9227 18.1611L56.9447 17.6246L56.9668 17.0954H58.5396H60.1198V16.5368V15.9782L61.6852 16.0003L63.2434 16.0297L63.2654 15.4932L63.2875 14.964H64.0518H64.8235V14.4128V13.8616H65.632H66.4478L66.4257 12.7738L66.4037 11.6934L65.6687 11.6567L64.9338 11.6199L64.9117 11.0834L64.8897 10.5542H65.6687H66.4404V10.003V9.4518H65.6614H64.875L64.9264 9.06227C64.9485 8.85648 64.9705 8.6066 64.9705 8.51105C64.9705 8.35671 64.9926 8.34936 65.7055 8.34936H66.4404V6.6957V5.04204H64.897H63.3536V5.55651V6.07098H60.84C59.451 6.07098 56.6067 6.04893 54.5194 6.01954L50.7123 5.97544V5.48301V4.99059L50.264 4.93914C50.0141 4.9171 49.3012 4.89505 48.6838 4.89505H47.5519V4.34383V3.7926H46.0085H44.4651V3.24138V2.69016H42.8849H41.3048V2.1022V1.51423H39.7246H38.1445V1.0071V0.507332L37.8064 0.455883C37.6153 0.433834 36.1968 0.411785 34.646 0.411785H31.8238V0.926258Z" fill="white"/>
<path d="M52.2111 21.7915C51.7628 22.0634 51.6966 22.7322 52.0788 23.1291C52.7991 23.8787 53.9015 22.9306 53.3577 22.034C53.1151 21.6445 52.63 21.5342 52.2111 21.7915Z" fill="white"/>
<path d="M63.3461 24.6654C62.5744 24.7976 61.8983 25.2827 61.3765 26.0838L61.0751 26.5395V25.6723V24.8123H60.4504H59.8257V29.0751V33.3379H60.4504H61.0751V30.5744V27.8036L61.4499 27.3039C61.913 26.6791 62.2437 26.3852 62.7655 26.1426C63.2873 25.9074 64.0003 25.8927 64.6323 26.1279C64.8749 26.2088 65.0733 26.2749 65.088 26.2676C65.1247 26.2161 65.5584 25.1578 65.5584 25.1063C65.5584 25.0108 64.8014 24.7462 64.3677 24.7021C64.1546 24.6801 63.9121 24.6433 63.8312 24.636C63.7504 24.6213 63.5299 24.636 63.3461 24.6654Z" fill="white"/>
<path d="M41.3414 24.7903C41.0621 24.8491 40.4815 25.0328 40.0626 25.1945C39.2173 25.5252 39.2247 25.5032 39.504 26.1573C39.5995 26.3778 39.651 26.4292 39.7465 26.3851C40.3418 26.1206 41.4149 25.8192 41.8926 25.7898C43.3184 25.6869 43.9946 26.2969 44.1342 27.8036L44.1857 28.3254L43.6051 28.3769C41.7677 28.5239 41.0107 28.6709 40.3198 29.0016C39.7171 29.2882 39.3937 29.5749 39.1365 30.0379C38.9307 30.4054 38.916 30.4936 38.916 31.1697C38.916 31.8459 38.9307 31.9341 39.1365 32.3016C39.5334 33.0218 40.2536 33.4775 41.0841 33.5437C42.069 33.6098 43.0391 33.2423 43.73 32.5368C44.193 32.059 44.2445 32.0737 44.2445 32.647C44.2445 32.772 44.2665 32.9851 44.2886 33.11L44.34 33.3379H44.9794H45.6262L45.5527 33.0586C45.5086 32.9116 45.4498 31.427 45.4204 29.7733C45.3763 26.907 45.3616 26.7379 45.2073 26.3043C44.9206 25.5105 44.34 24.9961 43.4728 24.7682C42.995 24.6359 41.9955 24.6506 41.3414 24.7903ZM44.171 30.0746V30.8611L43.6712 31.3461C43.0024 32.0002 42.4659 32.2648 41.7456 32.2942C41.0254 32.3236 40.6138 32.1325 40.3712 31.6475C39.9303 30.7876 40.43 29.9644 41.5986 29.6337C41.9588 29.5308 43.4507 29.325 43.9725 29.3029L44.171 29.2956V30.0746Z" fill="white"/>
<path d="M49.5361 25.3635V25.9148H50.7488H51.9615L51.9762 29.6043L51.9983 33.3011L52.645 33.3232L53.2844 33.3452V29.0751V24.8123H51.4103H49.5361V25.3635Z" fill="white"/>
<path d="M52.2111 35.5351C51.7628 35.807 51.6966 36.4759 52.0788 36.8727C52.7991 37.6224 53.9015 36.6743 53.3577 35.7776C53.1151 35.3881 52.63 35.2779 52.2111 35.5351Z" fill="white"/>
<path d="M28.8838 41.3121V47.0815H29.5085H30.1332V45.325V43.5684L30.5301 43.2303C30.7506 43.0466 30.949 42.8923 30.9637 42.8923C30.9858 42.8923 31.8089 43.833 32.7864 44.9869L34.5724 47.0815H35.4102H36.2481L35.8145 46.5818C34.3739 44.9502 31.8971 42.0838 31.8971 42.0618C31.8971 42.0471 32.757 41.2607 33.808 40.3199C34.859 39.3792 35.7189 38.6001 35.7189 38.5854C35.7189 38.5707 35.3661 38.556 34.9325 38.556H34.1388L32.1544 40.3493L30.17 42.1426L30.1479 38.8426L30.1332 35.5427H29.5085H28.8838V41.3121Z" fill="white"/>
<path d="M58.9438 41.3121V47.0815H59.5686H60.1933V45.325V43.5684L60.5902 43.2303C60.8106 43.0466 61.0091 42.8923 61.0238 42.8923C61.0458 42.8923 61.869 43.833 62.8465 44.9869L64.6324 47.0815H65.4703H66.3082L65.8745 46.5818C64.434 44.9502 61.9572 42.0838 61.9572 42.0618C61.9572 42.0471 62.8171 41.2607 63.8681 40.3199C64.9191 39.3792 65.779 38.6001 65.779 38.5854C65.779 38.5707 65.4262 38.556 64.9926 38.556H64.1988L62.2144 40.3493L60.23 42.1426L60.208 38.8426L60.1933 35.5427H59.5686H58.9438V41.3121Z" fill="white"/>
<path d="M40.8566 38.512C40.129 38.7104 39.3793 39.3351 39.078 40.0113C38.8649 40.5037 38.8208 41.4224 38.9898 41.9442C39.1662 42.4808 39.5631 43.0687 39.9453 43.3627L40.2613 43.5979L39.9967 43.7449C39.8497 43.8184 39.5631 44.0536 39.3499 44.2594C38.5562 45.0311 38.6517 45.8248 39.5998 46.4275L39.9232 46.6333L39.688 46.7509C39.3426 46.9346 38.8869 47.3683 38.7252 47.6769C38.4165 48.2943 38.615 49.1248 39.1956 49.6172C39.8497 50.1832 40.6655 50.4257 41.8562 50.411C43.6862 50.3889 45.2149 49.6172 45.8029 48.4192C46.016 47.9856 46.0454 47.8607 46.0454 47.3021C46.0454 46.5965 45.8984 46.2217 45.4869 45.8763C44.965 45.4353 44.9136 45.428 42.6132 45.428C40.592 45.428 40.4965 45.4206 40.298 45.2736C39.8718 44.9576 40.0408 44.5607 40.7978 44.105C41.0918 43.9213 41.2902 43.8478 41.3931 43.8698C41.6724 43.9433 42.6205 43.7816 43.0247 43.5906C43.598 43.3186 44.186 42.6645 44.3844 42.0765C44.5829 41.4812 44.5829 40.7757 44.3918 40.1583C44.3109 39.9084 44.2448 39.6879 44.2448 39.6806C44.2448 39.6732 44.5976 39.6512 45.0385 39.6438L45.8249 39.6218L45.847 39.0118C45.869 38.4752 45.8543 38.4091 45.7367 38.4091C45.6633 38.4091 45.09 38.4899 44.4579 38.5855L43.3187 38.7619L42.8043 38.5855C42.231 38.387 41.4225 38.3576 40.8566 38.512ZM42.6058 39.6732C43.0394 39.9599 43.2452 40.4302 43.2526 41.1284C43.2526 41.8267 43.0321 42.3044 42.5617 42.6351C42.2824 42.8335 42.1869 42.8556 41.7092 42.8556C41.2314 42.8556 41.1359 42.8335 40.8566 42.6351C40.6582 42.4955 40.4597 42.2603 40.3274 42.0104C40.1363 41.6503 40.1216 41.5547 40.1437 41.0917C40.1951 40.342 40.4671 39.8717 41.0477 39.5556C41.4005 39.3645 42.231 39.4233 42.6058 39.6732ZM44.3624 46.8317C44.6784 46.9787 44.7813 47.1698 44.7739 47.5667C44.7593 48.6691 43.3334 49.4996 41.621 49.4114C41.0624 49.3894 40.864 49.3453 40.5185 49.1689C39.4602 48.6397 39.5337 47.7431 40.6876 46.9493C40.9375 46.7729 41.202 46.7509 42.9806 46.7288C43.8993 46.7141 44.1639 46.7362 44.3624 46.8317Z" fill="white"/>
<path d="M49.5361 39.1077V39.6589H50.7488H51.9615L51.9762 43.3484L51.9983 47.0453L52.645 47.0673L53.2844 47.0894V42.8192V38.5565H51.4103H49.5361V39.1077Z" fill="white"/>
</svg>
